<svg width="26" height="26" viewBox="0 0 26 26" fill="none" xmlns="http://www.w3.org/2000/svg">
<path d="M12.6641 11.7129V18.1456" stroke="#F7F7F7" stroke-width="2" stroke-linecap="round" stroke-linejoin="round"/>
<path d="M16.8333 14.9287H8.5" stroke="#F7F7F7" stroke-width="2" stroke-linecap="round" stroke-linejoin="round"/>
<path d="M22.3807 6.34539C23.3442 7.08909 23.8258 7.46094 24.0797 7.9338C24.3333 8.40666 24.3333 8.93254 24.3333 9.98429V19.4316C24.3333 21.8575 24.3333 23.0705 23.357 23.8242C22.3807 24.5778 20.8093 24.5778 17.6667 24.5778H7.66667C4.52397 24.5778 2.95262 24.5778 1.97632 23.8242C1 23.0705 1 21.8575 1 19.4316V6.56612C1 4.14018 1 2.9272 1.97632 2.17357C2.95262 1.41992 4.52397 1.41992 7.66667 1.41992H13.2385C14.601 1.41992 15.2823 1.41992 15.8948 1.61579C16.5075 1.81165 16.9892 2.1835 17.9527 2.9272L22.3807 6.34539Z" stroke="#F7F7F7" stroke-width="2" stroke-linejoin="round"/>
</svg>
