<svg width="34" height="34" viewBox="0 0 34 34" fill="none" xmlns="http://www.w3.org/2000/svg">
<path d="M10 13.5H10.0175" stroke="#F7F7F7" stroke-width="2" stroke-linecap="round" stroke-linejoin="round"/>
<path d="M17 13.5H17.0175" stroke="#F7F7F7" stroke-width="2" stroke-linecap="round" stroke-linejoin="round"/>
<path d="M24 13.5H24.0175" stroke="#F7F7F7" stroke-width="2" stroke-linecap="round" stroke-linejoin="round"/>
<path d="M32.75 18.75V8.25C32.75 4.95017 32.75 3.30025 31.7248 2.27513C30.6997 1.25 29.0498 1.25 25.75 1.25H8.25C4.95017 1.25 3.30025 1.25 2.27513 2.27513C1.25 3.30025 1.25 4.95017 1.25 8.25V18.75C1.25 22.0498 1.25 23.6997 2.27513 24.7248C3.30025 25.75 4.95017 25.75 8.25 25.75H9.125C9.60825 25.75 10 26.1418 10 26.625V31V31.2623C10 31.8815 10.7024 32.2392 11.2031 31.875L18.9173 26.2647C19.3772 25.9302 19.9313 25.75 20.5 25.75H25.75C29.0498 25.75 30.6997 25.75 31.7248 24.7248C32.75 23.6997 32.75 22.0498 32.75 18.75Z" stroke="#F7F7F7" stroke-width="2" stroke-linejoin="round"/>
</svg>
