<svg width="18" height="18" viewBox="0 0 18 18" fill="none" xmlns="http://www.w3.org/2000/svg">
<path d="M10.1376 14.3574C10.4061 14.6259 10.8414 14.6259 11.1099 14.3574C11.3784 14.0889 11.3784 13.6536 11.1099 13.3851L10.1376 14.3574ZM4.61493 6.89013C4.34645 6.62164 3.91114 6.62164 3.64266 6.89013C3.37418 7.15862 3.37418 7.59392 3.64266 7.86242L4.61493 6.89013ZM14.4676 9.05509L9.05509 14.4676L10.0274 15.4399L15.4399 10.0274L14.4676 9.05509ZM3.53244 8.94491L8.94491 3.53244L7.9726 2.56017L2.56017 7.9726L3.53244 8.94491ZM3.53244 14.4676C2.75326 13.6884 2.21882 13.1519 1.87065 12.6955C1.53459 12.2551 1.4375 11.971 1.4375 11.7062H0.0625C0.0625 12.3926 0.348124 12.9668 0.7775 13.5296C1.19478 14.0765 1.80848 14.6881 2.56017 15.4399L3.53244 14.4676ZM2.56017 7.9726C1.80848 8.72436 1.19478 9.33596 0.7775 9.88284C0.348124 10.4456 0.0625 11.0199 0.0625 11.7062H1.4375C1.4375 11.4414 1.53459 11.1574 1.87065 10.7169C2.21882 10.2606 2.75326 9.72408 3.53244 8.94491L2.56017 7.9726ZM9.05509 14.4676C8.27592 15.2467 7.7394 15.7812 7.28308 16.1294C6.84263 16.4654 6.5586 16.5625 6.29378 16.5625V17.9375C6.98012 17.9375 7.55442 17.6519 8.11716 17.2225C8.66404 16.8052 9.27573 16.1915 10.0274 15.4399L9.05509 14.4676ZM2.56017 15.4399C3.31186 16.1915 3.92351 16.8052 4.47041 17.2225C5.03318 17.6519 5.60744 17.9375 6.29378 17.9375V16.5625C6.02895 16.5625 5.74492 16.4654 5.30446 16.1294C4.84813 15.7812 4.31163 15.2467 3.53244 14.4676L2.56017 15.4399ZM14.4676 3.53244C15.2467 4.31163 15.7812 4.84813 16.1294 5.30446C16.4654 5.74492 16.5625 6.02895 16.5625 6.29378H17.9375C17.9375 5.60744 17.6519 5.03318 17.2225 4.47041C16.8052 3.92351 16.1915 3.31186 15.4399 2.56017L14.4676 3.53244ZM15.4399 10.0274C16.1915 9.27573 16.8052 8.66404 17.2225 8.11716C17.6519 7.55442 17.9375 6.98012 17.9375 6.29378H16.5625C16.5625 6.5586 16.4654 6.84263 16.1294 7.28308C15.7812 7.7394 15.2467 8.27592 14.4676 9.05509L15.4399 10.0274ZM15.4399 2.56017C14.6881 1.80848 14.0765 1.19478 13.5296 0.7775C12.9668 0.348124 12.3926 0.0625 11.7062 0.0625V1.4375C11.971 1.4375 12.2551 1.53459 12.6955 1.87065C13.1519 2.21882 13.6884 2.75326 14.4676 3.53244L15.4399 2.56017ZM8.94491 3.53244C9.72408 2.75326 10.2606 2.21882 10.7169 1.87065C11.1574 1.53459 11.4414 1.4375 11.7062 1.4375V0.0625C11.0199 0.0625 10.4456 0.348124 9.88284 0.7775C9.33596 1.19478 8.72436 1.80848 7.9726 2.56017L8.94491 3.53244ZM11.1099 13.3851L4.61493 6.89013L3.64266 7.86242L10.1376 14.3574L11.1099 13.3851Z" fill="#F7F7F7"/>
<path d="M6.25 17.25H17.25" stroke="#F7F7F7" stroke-linecap="round"/>
</svg>
