<svg width="28" height="28" viewBox="0 0 28 28" fill="none" xmlns="http://www.w3.org/2000/svg">
<path d="M1.5 14C1.5 8.10744 1.5 5.16116 3.33059 3.33059C5.16116 1.5 8.10744 1.5 14 1.5C19.8925 1.5 22.8389 1.5 24.6694 3.33059C26.5 5.16116 26.5 8.10744 26.5 14C26.5 19.8925 26.5 22.8389 24.6694 24.6694C22.8389 26.5 19.8925 26.5 14 26.5C8.10744 26.5 5.16116 26.5 3.33059 24.6694C1.5 22.8389 1.5 19.8925 1.5 14Z" stroke="#F7F7F7" stroke-width="1.5"/>
<path d="M20.25 7.75H16.5M20.25 7.75V11.5M20.25 7.75L15.875 12.125M7.75 20.25H11.5M7.75 20.25V16.5M7.75 20.25L12.125 15.875" stroke="#F7F7F7" stroke-width="1.5" stroke-linecap="round" stroke-linejoin="round"/>
</svg>
