<svg width="32" height="32" viewBox="0 0 32 32" fill="none" xmlns="http://www.w3.org/2000/svg">
<path d="M1.75 11.212C1.75 3.42004 3.42004 1.75 11.212 1.75H20.788C28.5799 1.75 30.25 3.42004 30.25 11.212V20.788C30.25 28.5799 28.5799 30.25 20.788 30.25H11.212C3.42004 30.25 1.75 28.5799 1.75 20.788V11.212Z" stroke="#F7F7F7" stroke-width="2"/>
<path d="M23.9238 23.1282L17.1525 16.3569C11.6428 10.8472 9.281 10.8472 3.77125 16.3569L1.75 18.3782" stroke="#F7F7F7" stroke-width="2" stroke-linecap="round"/>
<path d="M30.249 18.6443C26.9348 16.1054 24.6722 16.462 21.0625 19.7141" stroke="#F7F7F7" stroke-width="2" stroke-linecap="round"/>
<path d="M23.9167 9.66634C23.9167 10.5408 23.2078 11.2497 22.3333 11.2497C21.4589 11.2497 20.75 10.5408 20.75 9.66634C20.75 8.7919 21.4589 8.08301 22.3333 8.08301C23.2078 8.08301 23.9167 8.7919 23.9167 9.66634Z" stroke="#F7F7F7" stroke-width="2"/>
</svg>
