<svg width="16" height="18" viewBox="0 0 16 18" fill="none" xmlns="http://www.w3.org/2000/svg">
<path d="M12.5846 8.08353V6.50052C12.5846 6.02591 12.8219 5.5827 13.2168 5.31944L13.2619 5.28935C13.6884 5.00501 14.2401 4.99037 14.681 5.2517C15.0862 5.49177 15.3346 5.92775 15.3346 6.39866V9.91686C15.3346 11.4749 14.8487 12.9195 14.0202 14.1073C12.695 16.0071 10.4933 17.2502 8.00129 17.2502C5.50929 17.2502 3.30759 16.0071 1.9824 14.1073C1.15388 12.9195 0.667969 11.4749 0.667969 9.91686V9.19425C0.66796 8.48503 1.07709 7.83933 1.71845 7.53646C2.2141 7.30243 2.78848 7.30243 3.28414 7.53646C3.9255 7.83933 4.33463 8.48503 4.33464 9.19425V9.91686" stroke="#F7F7F7" stroke-linecap="round"/>
<path d="M4.33594 9.00013V3.31934C4.33594 2.8596 4.5657 2.43028 4.94822 2.17527C5.41009 1.86736 6.01179 1.86736 6.4737 2.17527C6.85613 2.43028 7.08594 2.8596 7.08594 3.31934V8.08346" stroke="#F7F7F7" stroke-linecap="round" stroke-linejoin="round"/>
<path d="M9.83594 8.08346V3.31934C9.83594 2.8596 10.0657 2.43028 10.4482 2.17527C10.9101 1.86736 11.5118 1.86736 11.9737 2.17527C12.3561 2.43028 12.5859 2.8596 12.5859 3.31934V6.25013" stroke="#F7F7F7" stroke-linecap="round" stroke-linejoin="round"/>
<path d="M7.08594 3.4998V2.40235C7.08594 1.94261 7.31575 1.51329 7.69818 1.25827C8.16009 0.950367 8.76179 0.950367 9.2237 1.25827C9.60613 1.51329 9.83594 1.94261 9.83594 2.40235V3.4998" stroke="#F7F7F7" stroke-linecap="round" stroke-linejoin="round"/>
</svg>
