<svg width="30" height="30" viewBox="0 0 30 30" fill="none" xmlns="http://www.w3.org/2000/svg">
<path d="M28.3346 15.0003C28.3346 21.2857 28.3346 24.4285 26.382 26.381C24.4294 28.3337 21.2866 28.3337 15.0013 28.3337C8.7159 28.3337 5.57321 28.3337 3.6206 26.381C1.66797 24.4285 1.66797 21.2857 1.66797 15.0003C1.66797 8.71493 1.66797 5.57223 3.6206 3.61962C5.57321 1.66699 8.7159 1.66699 15.0013 1.66699" stroke="#F7F7F7" stroke-width="2" stroke-linecap="round"/>
<path d="M1.66797 15.6674L4.00342 13.624C5.21845 12.5609 7.04968 12.6218 8.19129 13.7634L13.9109 19.483C14.8272 20.3994 16.2696 20.5244 17.3298 19.7792L17.7274 19.4998C19.253 18.4276 21.3172 18.5518 22.7033 19.7993L27.0013 23.6674" stroke="#F7F7F7" stroke-width="2" stroke-linecap="round"/>
<path d="M19 6.33366H23.6667M23.6667 6.33366H28.3333M23.6667 6.33366V11.0003M23.6667 6.33366V1.66699" stroke="#F7F7F7" stroke-width="2" stroke-linecap="round"/>
</svg>
