<svg width="64" height="64" viewBox="0 0 64 64" fill="none" xmlns="http://www.w3.org/2000/svg">
<circle cx="31.8501" cy="31.8501" r="31.8501" fill="white"/>
<path d="M22.4311 49.3724C23.5517 53.5011 28.3126 56.3637 31.7589 53.5245C32.6148 52.8194 32.9159 51.6788 32.9159 50.5698C32.9159 47.8651 32.9159 43.1204 32.9159 37.8327M22.4311 49.3724L24.871 46.9985M22.4311 49.3724C17.2209 50.2296 15.1103 46.2072 16.1666 41.4593M24.871 46.9985C25.9586 47.9648 28.1021 47.7898 28.1021 47.7898M24.871 46.9985C24.1355 46.1258 23.9 45.6541 23.6181 44.8224M16.1666 41.4593C17.745 41.8568 19.0678 41.7231 20.0564 41.0637M16.1666 41.4593C11.6164 39.8108 11.0888 32.8209 15.2426 30.5789M15.2426 30.5789C16.1666 32.1615 17.5512 32.9528 18.6722 33.1506M15.2426 30.5789C13.587 27.4172 14.7954 24.4084 16.8918 23.1509M19.0678 22.5339C18.2957 22.5339 17.55 22.7561 16.8918 23.1509M16.8918 23.1509C14.56 18.4661 17.3239 13.7465 22.4309 14.5774M24.0795 15.0165C22.7086 16.388 22.4968 17.5882 22.6947 19.2368M24.0795 15.0165C25.2628 14.0057 26.5853 13.8955 28.1679 14.0933M24.0795 15.0165C23.5071 14.8073 22.9566 14.6629 22.4309 14.5774M22.4309 14.5774C23.7899 8.99712 29.7779 6.73446 32.4273 10.9694C32.8008 11.5664 32.9159 12.2789 32.9159 12.983C32.9159 14.8876 32.9159 17.9743 32.9159 21.6109M32.9159 37.8327C30.8597 40.157 28.1371 40.1484 26.514 38.69M32.9159 37.8327C32.9159 35.6482 32.9159 33.371 32.9159 31.1066M25.1345 35.7226C25.2195 36.976 25.7425 37.9968 26.514 38.69M26.514 38.69C25.3443 40.0753 24.7213 40.5184 23.6181 41.0637M26.514 29.3262C24.775 30.9588 23.6479 31.2306 21.4418 30.7769M21.4418 26.8863C21.3543 24.4061 22.8679 22.1053 25.5302 21.6109M32.9159 21.6109C31.6239 20.0791 30.7442 19.6198 29.0911 19.0392M32.9159 21.6109C32.9159 24.5307 32.9159 27.805 32.9159 31.1066M32.9159 31.1066C32.0085 30.1106 31.5028 29.8108 30.6077 29.3262" stroke="#3891FF" stroke-width="2.75047" stroke-linecap="round" stroke-linejoin="round"/>
<path d="M37.6921 49.7097H45.0548M37.6921 54.6688H44.5273C44.8187 54.6688 45.0548 54.4326 45.0548 54.1412V49.7097M45.0548 49.7097H47.5821C47.8734 49.7097 48.1096 49.4735 48.1096 49.1822V42.1296C48.1096 41.8382 47.8734 41.602 47.5821 41.602H45.0548M45.0548 41.602H38.2196C37.9283 41.602 37.6921 41.3699 37.6921 41.0786C37.6921 39.2842 37.692 33.3521 37.6921 30.7938C37.6921 30.5024 37.9322 30.2723 38.2196 30.2246C41.5223 29.6763 41.6403 23.9882 38.22 23.4583C37.9322 23.4137 37.692 23.1871 37.6919 22.8958C37.6911 19.8598 37.6914 13.3765 37.6917 9.02279C37.6918 8.3997 38.6263 8.28698 38.7968 8.88628C41.0618 16.8474 43.6879 21.6782 50.303 27.5507C50.4847 27.712 50.5373 27.9785 50.4253 28.1941L45.1142 38.4178C45.0752 38.4929 45.0548 38.5763 45.0548 38.661V41.602Z" stroke="#3891FF" stroke-width="2.75047" stroke-linecap="round" stroke-linejoin="round"/>
</svg>
