<svg width="516" height="81" viewBox="0 0 516 81" fill="none" xmlns="http://www.w3.org/2000/svg">
<circle cx="132.85" cy="48.8501" r="31.8501" fill="white"/>
<path d="M123.431 66.3724C124.552 70.5011 129.313 73.3637 132.759 70.5245C133.615 69.8194 133.916 68.6788 133.916 67.5698C133.916 64.8651 133.916 60.1204 133.916 54.8327M123.431 66.3724L125.871 63.9985M123.431 66.3724C118.221 67.2296 116.11 63.2072 117.167 58.4593M125.871 63.9985C126.959 64.9648 129.102 64.7898 129.102 64.7898M125.871 63.9985C125.136 63.1258 124.9 62.6541 124.618 61.8224M117.167 58.4593C118.745 58.8568 120.068 58.7231 121.056 58.0637M117.167 58.4593C112.616 56.8108 112.089 49.8209 116.243 47.5789M116.243 47.5789C117.167 49.1615 118.551 49.9528 119.672 50.1506M116.243 47.5789C114.587 44.4172 115.795 41.4084 117.892 40.1509M120.068 39.5339C119.296 39.5339 118.55 39.7561 117.892 40.1509M117.892 40.1509C115.56 35.4661 118.324 30.7465 123.431 31.5774M125.079 32.0165C123.709 33.388 123.497 34.5882 123.695 36.2368M125.079 32.0165C126.263 31.0057 127.585 30.8955 129.168 31.0933M125.079 32.0165C124.507 31.8073 123.957 31.6629 123.431 31.5774M123.431 31.5774C124.79 25.9971 130.778 23.7345 133.427 27.9694C133.801 28.5664 133.916 29.2789 133.916 29.983C133.916 31.8876 133.916 34.9743 133.916 38.6109M133.916 54.8327C131.86 57.157 129.137 57.1484 127.514 55.69M133.916 54.8327C133.916 52.6482 133.916 50.371 133.916 48.1066M126.135 52.7226C126.219 53.976 126.743 54.9968 127.514 55.69M127.514 55.69C126.344 57.0753 125.721 57.5184 124.618 58.0637M127.514 46.3262C125.775 47.9588 124.648 48.2306 122.442 47.7769M122.442 43.8863C122.354 41.4061 123.868 39.1053 126.53 38.6109M133.916 38.6109C132.624 37.0791 131.744 36.6198 130.091 36.0392M133.916 38.6109C133.916 41.5307 133.916 44.805 133.916 48.1066M133.916 48.1066C133.009 47.1106 132.503 46.8108 131.608 46.3262" stroke="#3891FF" stroke-width="2.75047" stroke-linecap="round" stroke-linejoin="round"/>
<path d="M138.692 66.7097H146.055M138.692 71.6688H145.527C145.819 71.6688 146.055 71.4326 146.055 71.1412V66.7097M146.055 66.7097H148.582C148.873 66.7097 149.11 66.4735 149.11 66.1822V59.1296C149.11 58.8382 148.873 58.602 148.582 58.602H146.055M146.055 58.602H139.22C138.928 58.602 138.692 58.3699 138.692 58.0786C138.692 56.2842 138.692 50.3521 138.692 47.7938C138.692 47.5024 138.932 47.2723 139.22 47.2246C142.522 46.6763 142.64 40.9882 139.22 40.4583C138.932 40.4137 138.692 40.1871 138.692 39.8958C138.691 36.8598 138.691 30.3765 138.692 26.0228C138.692 25.3997 139.626 25.287 139.797 25.8863C142.062 33.8474 144.688 38.6782 151.303 44.5507C151.485 44.712 151.537 44.9785 151.425 45.1941L146.114 55.4178C146.075 55.4929 146.055 55.5763 146.055 55.661V58.602Z" stroke="#3891FF" stroke-width="2.75047" stroke-linecap="round" stroke-linejoin="round"/>
<path d="M21.8505 0.287507C46.0011 1.69997e-05 87.1146 0 87.1146 0V11.7878H22.138C9.48773 13.2253 7.18767 32.2008 22.138 34.7883H71.8767C98.6149 37.6634 101.49 76.4769 72.1642 80.7895H0V69.0017H72.1642C85.6771 65.5516 83.6645 49.1637 72.1642 46.2886H20.413C-10.3503 39.676 -2.87507 1.72481 21.8505 0.287507Z" fill="white"/>
<path d="M244.381 17.2504V29.0382C244.381 29.0382 210.743 28.9216 203.555 28.9216C182.279 28.1757 176.529 66.9891 203.555 69.2892H244.381V80.7895H202.405C162.729 78.2019 165.892 17.8254 202.405 17.2504H244.381Z" fill="white"/>
<path d="M268.531 29.0382V80.7895H257.031V17.5379H307.632C315.683 18.1129 329.483 24.1506 329.483 41.6885C329.195 48.8762 324.883 58.6514 313.095 62.964L331.496 80.7895H315.683L297.857 63.6538H274.569V52.3263H307.632C321.72 49.7387 321.145 30.4757 307.632 29.0382H268.531Z" fill="white"/>
<path d="M354.496 80.7895V17.5379H343.144V80.7895H354.496Z" fill="white"/>
<path d="M436.436 28.9368V17.5379H364.107V28.9258H394.586V80.7895H406.088V28.9368H436.436Z" fill="white"/>
<path d="M515.5 80.7895V17.2504H472.661C455.411 18.1129 442.186 31.3383 441.898 48.5887V80.7895H453.686V49.1637C453.686 39.1009 461.449 29.6132 472.661 29.0382H504V51.7513H459.724V63.539H504V80.7895H515.5Z" fill="white"/>
</svg>
