<svg width="24" height="34" viewBox="0 0 24 34" fill="none" xmlns="http://www.w3.org/2000/svg">
<path d="M6.75 6.5C6.75 4.86921 6.75 4.05382 7.01642 3.4106C7.37165 2.55302 8.05302 1.87165 8.91055 1.51642C9.55385 1.25 10.3692 1.25 12 1.25C13.6308 1.25 14.4461 1.25 15.0894 1.51642C15.9469 1.87165 16.6284 2.55302 16.9837 3.4106C17.25 4.05382 17.25 4.86921 17.25 6.5V11.75V17C17.25 18.6308 17.25 19.4461 16.9837 20.0894C16.6284 20.9469 15.9469 21.6284 15.0894 21.9837C14.4461 22.25 13.6308 22.25 12 22.25C10.3692 22.25 9.55385 22.25 8.91055 21.9837C8.05302 21.6284 7.37165 20.9469 7.01642 20.0894C6.75 19.4461 6.75 18.6308 6.75 17V11.75V6.5Z" stroke="#F7F7F7" stroke-width="2" stroke-linejoin="round"/>
<path d="M3.25 32.75H20.75" stroke="#F7F7F7" stroke-width="2" stroke-linecap="round" stroke-linejoin="round"/>
<path d="M12 22.25V32.75" stroke="#F7F7F7" stroke-width="2" stroke-linecap="round" stroke-linejoin="round"/>
<path d="M1.5 24L5.86826 26.9122C6.44321 27.2954 7.11872 27.5 7.80971 27.5H16.1902C16.8813 27.5 17.5568 27.2954 18.1317 26.9122L22.5 24" stroke="#F7F7F7" stroke-width="2" stroke-linecap="round"/>
</svg>
