<svg width="30" height="34" viewBox="0 0 30 34" fill="none" xmlns="http://www.w3.org/2000/svg">
<path d="M14.9995 3.35449C13.4502 3.35449 12.1291 4.34412 11.6395 5.72938C11.4209 6.34774 10.7425 6.67184 10.1241 6.45328C9.50577 6.23472 9.18167 5.55628 9.40024 4.93794C10.2148 2.63343 12.4125 0.979492 14.9995 0.979492C17.5867 0.979492 19.7844 2.63343 20.599 4.93794C20.8175 5.55628 20.4934 6.23472 19.8751 6.45328C19.2566 6.67184 18.5782 6.34774 18.3597 5.72938C17.8701 4.34412 16.5488 3.35449 14.9995 3.35449Z" fill="#F7F7F7"/>
<path d="M0.355469 8.5C0.355469 7.84417 0.887136 7.3125 1.54297 7.3125H28.4598C29.1156 7.3125 29.6473 7.84417 29.6473 8.5C29.6473 9.15583 29.1156 9.6875 28.4598 9.6875H1.54297C0.887136 9.6875 0.355469 9.15583 0.355469 8.5Z" fill="#F7F7F7"/>
<path d="M5.3685 12.38C5.32488 11.7256 4.75903 11.2305 4.10465 11.2742C3.45026 11.3178 2.95513 11.8836 2.99877 12.538L3.73257 23.5449C3.86793 25.576 3.97727 27.2165 4.23372 28.5039C4.50036 29.8423 4.95385 30.9603 5.89055 31.8365C6.82724 32.7129 7.97286 33.091 9.32606 33.268C10.6276 33.4382 12.2719 33.4382 14.3074 33.4382H15.6988C17.7344 33.4382 19.3785 33.4382 20.6802 33.268C22.0333 33.091 23.179 32.7129 24.1157 31.8365C25.0524 30.9603 25.5058 29.8423 25.7725 28.5039C26.0288 27.2165 26.1382 25.576 26.2736 23.5449L27.0075 12.538C27.051 11.8836 26.5559 11.3178 25.9015 11.2742C25.2471 11.2305 24.6812 11.7256 24.6377 12.38L23.9094 23.3036C23.7672 25.4378 23.6657 26.9226 23.4432 28.0398C23.2273 29.1236 22.926 29.6973 22.4931 30.1023C22.0602 30.5071 21.4677 30.7698 20.372 30.9131C19.2425 31.0608 17.7542 31.0632 15.6154 31.0632H14.3908C12.2521 31.0632 10.7637 31.0608 9.63411 30.9131C8.53844 30.7698 7.94602 30.5071 7.51311 30.1023C7.08021 29.6973 6.77885 29.1236 6.56296 28.0398C6.3404 26.9226 6.23901 25.4378 6.09675 23.3036L5.3685 12.38Z" fill="#F7F7F7"/>
<path d="M10.9249 15.2355C11.5775 15.1702 12.1593 15.6463 12.2247 16.299L13.0164 24.2157C13.0816 24.8682 12.6055 25.4502 11.9529 25.5154C11.3003 25.5807 10.7184 25.1045 10.6531 24.4519L9.86145 16.5352C9.79619 15.8827 10.2723 15.3007 10.9249 15.2355Z" fill="#F7F7F7"/>
<path d="M20.1414 16.5352C20.2066 15.8827 19.7305 15.3007 19.0779 15.2355C18.4254 15.1702 17.8433 15.6463 17.7781 16.299L16.9864 24.2157C16.9212 24.8682 17.3973 25.4502 18.05 25.5154C18.7025 25.5807 19.2843 25.1045 19.3497 24.4519L20.1414 16.5352Z" fill="#F7F7F7"/>
</svg>
