<svg width="32" height="32" viewBox="0 0 32 32" fill="none" xmlns="http://www.w3.org/2000/svg">
<path d="M25.3993 21.199L27.8308 13.9041C29.9551 7.53143 31.0172 4.34507 29.3352 2.6631C27.6533 0.981149 24.467 2.04327 18.0942 4.1675L10.7994 6.59912C5.65594 8.31359 3.08425 9.17083 2.35345 10.4279C1.65822 11.6238 1.65822 13.1007 2.35345 14.2966C3.08425 15.5537 5.65594 16.4109 10.7994 18.1254C11.6252 18.4006 12.0381 18.5383 12.3833 18.7694C12.7178 18.9932 13.0051 19.2807 13.229 19.6151C13.46 19.9602 13.5977 20.3732 13.873 21.199C15.5874 26.3425 16.4447 28.9141 17.7018 29.6449C18.8976 30.3402 20.3746 30.3402 21.5705 29.6449C22.8276 28.9141 23.6848 26.3425 25.3993 21.199Z" stroke="#2190FE" stroke-width="2"/>
<path d="M21.9647 11.5348C22.3819 11.1221 22.3855 10.4494 21.9729 10.0322C21.5603 9.61494 20.8876 9.61122 20.4704 10.0239L21.9647 11.5348ZM14.1036 19.3091L21.9647 11.5348L20.4704 10.0239L12.6094 17.7982L14.1036 19.3091Z" fill="#2190FE"/>
</svg>
